<?xml version="1.0" encoding="utf-8"?>
<!-- Generator: Adobe Illustrator 24.1.2, SVG Export Plug-In . SVG Version: 6.00 Build 0)  -->
<svg version="1.1" id="Ebene_1" xmlns="http://www.w3.org/2000/svg" xmlns:xlink="http://www.w3.org/1999/xlink" x="0px" y="0px"
	 viewBox="0 0 150 150" style="enable-background:new 0 0 150 150;" xml:space="preserve">
<style type="text/css">
	.st0{fill:#FFFFFF;}
</style>
<g id="Gruppe_6430" transform="translate(-1282.752 -578.052)">
	<g id="Gruppe_6424" transform="translate(1289.648 578.052)">
		<path id="Pfad_4725" class="st0" d="M132.5,102.1l-6.2-4.7l-0.2-1.7l0.6-0.7l4-4.1l-5-2.6l-0.7-0.3l-0.6-1.7l0.5-0.9l3.2-4.8
			l-5.4-1.7l-0.8-0.2l-0.9-1.6l0.4-0.9l2.4-5.3l-5.6-0.7h-0.8l-1.2-1.5l1.6-6.5l-6.7,0.3L110,61l0.1-0.9l0.4-5.7l-6.5,1.5l-1.4-1.1
			l-0.1-0.9l-0.6-5.7l-6.2,2.5l-1.5-0.8l-0.2-0.9l-1.6-5.5l-5.6,3.6l-1.7-0.5l-0.4-0.8l-2.5-5.2l-4.8,4.5L75.5,45l-0.5-0.8l-3.4-4.7
			l-4,5.3L65.8,45l-0.7-0.6l-4.1-4l-3.1,5.9l-1.6,0.5l-0.8-0.5L50.7,43l-1.8,5.6l-0.3,0.8l-1.7,0.6l-0.7-0.4L41,47.3l-0.9,6.6
			l-1.4,1l-0.9-0.2l-5.6-1.4l0.3,5.9v0.9l-1.4,1.2l-0.8-0.1l-5.7-0.4l1.4,6.5l-0.9,1.4l-1,0.2l-5.7,0.6l2.2,5.3l0.4,0.8l-0.9,1.7
			l-0.9,0.2l-5.5,1.6l3.1,4.8l0.5,0.6L17,86l-0.9,0.5l-5.2,2.5l4.5,4.9l-0.2,1.9l-0.8,0.5l-6.7,4.9l-0.5-0.7l-1.6,1.1l-1.1-1.6
			l0.3-1.6L5.5,98l5-3.6L5.5,89L6,87l0.9-0.4l5.5-2.7l-3.9-6l0.6-1.8l1-0.4l6-1.7l-2.4-5.7l-0.5-0.9l1.2-1.9h1l6.1-0.6l-1.4-6.2
			L20.1,58l1.2-1.4h1l6.3,0.5l-0.3-6.3v-1l1.7-1.2l0.9,0.3l5.9,1.5l0.9-7.1l1.6-1l1,0.4l5.7,2.5l1.9-6.1l0.3-0.9l1.8-0.6l0.8,0.5
			l5.1,3.5l3.3-6.4l2-0.3l0.7,0.7l4.4,4.3l3.8-4.9l0.6-0.8l2.1,0.1l0.5,0.8l3.6,5l4.5-4.2l0.7-0.7l2,0.3l0.5,0.9l2.7,5.6l5.1-3.3
			l0.8-0.6l2,0.7l0.3,1l1.7,5.9l6.6-2.8l1.7,1l0.7,7.1l5.9-1.3l0.9-0.3l1.7,1.3l-0.1,1.1l-0.4,6.2l6.3-0.3h0.9l1.2,1.4l-0.2,1
			l-1.5,6l6,0.8h0.9L129,69l-0.4,1l-2.5,5.7l5.8,1.8l0.9,0.2l0.8,2l-0.6,0.9l-3.5,5.1l5.6,2.9l0.8,0.5l0.3,1.8l-0.7,0.8l-4.3,4.5
			l3.8,2.9L132.5,102.1z"/>
	</g>
	<g id="Gruppe_6425" transform="translate(1316.778 605.138)">
		<path id="Pfad_4726" class="st0" d="M65.1,73.4h-3.9c0-9.7-7.9-17.6-17.6-17.6S26,63.7,26,73.4l0,0h-3.9
			c0-11.9,9.6-21.5,21.5-21.6C55.4,51.9,65.1,61.5,65.1,73.4C65.1,73.4,65.1,73.4,65.1,73.4z"/>
	</g>
	<g id="Gruppe_6426" transform="translate(1282.752 617.008)">
		<path id="Rechteck_2499" class="st0" d="M2,59.6H148c1.1,0,2,0.9,2,2l0,0c0,1.1-0.9,2-2,2H2c-1.1,0-2-0.9-2-2l0,0
			C0,60.5,0.9,59.6,2,59.6z"/>
	</g>
	<g id="Gruppe_6427" transform="translate(1282.752 625.006)">
		<path id="Rechteck_2500" class="st0" d="M2,64.8H148c1.1,0,2,0.9,2,2l0,0c0,1.1-0.9,2-2,2H2c-1.1,0-2-0.9-2-2l0,0
			C0,65.7,0.9,64.8,2,64.8z"/>
	</g>
	<g id="Gruppe_6428" transform="translate(1311.573 591.461)">
		<path id="Pfad_4727" class="st0" d="M19.6,54.6l-0.5-0.6c-0.6-0.6-0.6-1.6,0.1-2.2c0,0,0,0,0,0c4.6-3.9,9.9-6.9,15.6-8.7
			c0.8-0.2,1.7,0.2,1.9,1c0,0,0,0,0,0.1l0.2,0.8c0.2,0.8-0.3,1.7-1.1,2c-5.2,1.7-9.9,4.3-14,7.8C21.2,55.3,20.2,55.3,19.6,54.6z"/>
	</g>
	<g id="Gruppe_6429" transform="translate(1331.128 590.355)">
		<path id="Pfad_4728" class="st0" d="M49.8,51.9c-5.2-3.1-11-5-17-5.6c-0.9-0.1-1.5-0.8-1.5-1.7l0-0.8c0-0.8,0.8-1.5,1.6-1.4
			c0,0,0,0,0,0c6.7,0.6,13.2,2.8,18.9,6.3c0.7,0.4,0.9,1.4,0.5,2.1c0,0,0,0,0,0L52,51.4C51.5,52.1,50.6,52.3,49.8,51.9z"/>
	</g>
</g>
</svg>
